# xmcd
# Track frame offsets:
# 150
# 16144
# 35009
# 49386
# 65453
#
# Disc length: 1123 seconds
# Revision: 0
# Processed by: cddbd v1.5.2PL0 Copyright (c) Steve Scherf et al.
# Submitted via: VisiTrax 2.10.3.257 - For more info visit www.synapsa.com
#
DISCID=3e046105
DTITLE=Various Artist - Sony Country Singles
DYEAR=2008
DGENRE=
TTITLE0=Underwood, Carrie - All American Girl
TTITLE1=Paisley, Brad - I'm Still a Guy
TTITLE2=Lambert, Miranda - Gunpowder and Lead
TTITLE3=Rimes, LeAnn - Good Friend and a glass of Wine
TTITLE4=Chesney, Kenny - Shift Work
EXTD=
EXTT0=
EXTT1=
EXTT2=
EXTT3=
EXTT4=
PLAYORDER=
